<?xml version="1.0" encoding="utf-8"?>
<!-- Generator: Adobe Illustrator 16.0.0, SVG Export Plug-In . SVG Version: 6.00 Build 0)  -->
<!DOCTYPE svg PUBLIC "-//W3C//DTD SVG 1.1//EN" "http://www.w3.org/Graphics/SVG/1.1/DTD/svg11.dtd">
<svg version="1.1" id="Layer_1" xmlns="http://www.w3.org/2000/svg" xmlns:xlink="http://www.w3.org/1999/xlink" x="0px" y="0px"
	 width="1189.27px" height="357.675px" viewBox="-40.487 15.772 1189.27 357.675"
	 enable-background="new -40.487 15.772 1189.27 357.675" xml:space="preserve">
<g id="logo">
	<g>
		<g>
			<g>
				<path fill="#FFFFFF" d="M128.052,181.378c0-12.526,10.183-22.648,22.651-22.648l0,0c12.526,0.045,22.591,10.136,22.616,22.648
					l0,0c-0.025,12.493-10.106,22.577-22.616,22.609l0,0v-1.436v-1.436c10.944,0,19.761-8.817,19.761-19.74l0,0
					c0-10.937-8.835-19.771-19.761-19.771l0,0c-10.92,0.01-19.776,8.832-19.792,19.771l0,0c0.018,10.923,8.872,19.716,19.792,19.74
					l0,0v1.436v1.436C138.236,203.987,128.052,193.894,128.052,181.378L128.052,181.378z"/>
				<path fill="#FFFFFF" d="M110.065,181.378c0-22.418,18.172-40.671,40.639-40.671l0,0c22.415,0,40.633,18.24,40.633,40.671l0,0
					c0,22.393-18.223,40.605-40.633,40.616l0,0v-1.411v-1.444c20.81-0.032,37.746-16.963,37.785-37.759l0,0
					c-0.039-20.847-16.975-37.77-37.785-37.81l0,0c-20.864,0.042-37.722,16.963-37.771,37.81l0,0
					c0.048,20.796,16.908,37.727,37.771,37.759l0,0v1.444v1.411C128.237,221.994,110.065,203.769,110.065,181.378L110.065,181.378z"
					/>
				<path fill="#FFFFFF" d="M90.44,181.378c0-33.283,27-60.226,60.261-60.226l0,0c33.242,0,60.206,26.94,60.219,60.226l0,0
					c-0.013,33.234-26.977,60.193-60.219,60.193l0,0v-1.431v-1.438c31.664-0.054,57.305-25.666,57.361-57.328l0,0
					c-0.055-31.706-25.698-57.31-57.361-57.392l0,0c-31.672,0.082-57.338,25.688-57.394,57.392l0,0
					c0.056,31.662,25.722,57.274,57.394,57.328l0,0v1.438v1.431C117.439,241.571,90.44,214.637,90.44,181.378L90.44,181.378z"/>
				<path fill="#FFFFFF" d="M71.706,181.378c0-43.695,35.346-79.032,78.987-79.032l0,0c43.661,0,79.055,35.334,79.055,79.032l0,0
					c0,43.632-35.394,78.999-79.055,78.999l0,0v-1.433v-1.436c42.079-0.076,76.119-34.093,76.188-76.134l0,0
					c-0.069-42.103-34.109-76.104-76.188-76.171l0,0c-42.071,0.068-76.052,34.071-76.132,76.173l0,0
					c0.08,42.039,34.061,76.056,76.132,76.132l0,0v1.436v1.433C107.049,260.379,71.706,225.01,71.706,181.378L71.706,181.378z"/>
				<path fill="#FFFFFF" d="M50.964,181.378c0-55.093,44.652-99.793,99.729-99.804l0,0c55.08,0.01,99.744,44.71,99.744,99.804l0,0
					c0,55.089-44.665,99.73-99.744,99.73l0,0v-1.446v-1.422c53.501-0.086,96.798-43.341,96.887-96.865l0,0
					c-0.089-53.511-43.386-96.845-96.887-96.944l0,0c-53.492,0.1-96.783,43.434-96.888,96.947l0,0
					c0.103,53.52,43.396,96.774,96.886,96.864l0,0v1.42v1.444C95.616,281.108,50.964,236.466,50.964,181.378L50.964,181.378z"/>
				<g>
					<g>
						<polygon fill="#FFFFFF" points="149.234,160.187 149.234,83.019 152.113,83.019 152.113,160.187 						"/>
					</g>
				</g>
				<g>
					<g>
						<polygon fill="#FFFFFF" points="80.213,112.85 82.238,110.837 136.735,165.364 134.693,167.389 						"/>
					</g>
				</g>
				<g>
					<g>
						<polygon fill="#FFFFFF" points="52.371,182.793 52.371,179.959 129.477,179.959 129.477,182.793 						"/>
					</g>
				</g>
				<g>
					<g>
						<polygon fill="#FFFFFF" points="80.213,249.813 134.693,195.398 136.735,197.414 82.238,251.848 						"/>
					</g>
				</g>
				<g>
					<g>
						<polygon fill="#FFFFFF" points="149.234,279.663 149.234,202.552 152.113,202.552 152.113,279.663 						"/>
					</g>
				</g>
				<g>
					<g>
						<polygon fill="#FFFFFF" points="164.674,197.414 166.701,195.398 221.204,249.813 219.178,251.848 						"/>
					</g>
				</g>
				<g>
					<g>
						<polygon fill="#FFFFFF" points="171.888,182.804 171.888,179.959 249.016,179.959 249.016,182.804 						"/>
					</g>
				</g>
				<g>
					<g>
						<polygon fill="#FFFFFF" points="164.674,165.364 219.178,110.837 221.204,112.85 166.701,167.389 						"/>
					</g>
				</g>
			</g>
			<g>
				<path fill="#FFFFFF" d="M135.549,187.763c0.867-0.102,0.718,0.656,1.013,1.138c0,0.022,0.229,0.022,0.353,0
					c1.309-1.411,2.13-3.071,2.454-5.016c0-0.149,0.369-0.316,0.369-0.387c-0.193-0.876-1.142-1.176-1.558-1.912
					c-0.491,1.297-1.811,0.24-2.802,0.875c-0.013,0.024-0.089,0.375,0.171,0.477c0.353,0.172,0.867,0.013,0.979,0.288
					c0.241,0.343,0.241,0.942-0.112,1.372c-0.047,0.106-0.333,0.08-0.333,0c-0.512-0.999-1.332-0.865-2.251-0.865
					c0.384,0.329-0.295,0.237-0.134,0.433c-1.275-0.343-2.505,0.275-3.735,0.392c-0.373,0.043-0.862-0.251-1.189-0.583
					c-0.445,0.471-0.971,1.389-1.666,1.129c-0.232-0.104-0.635-0.659-0.374-0.795c0.705-0.422,1.33-0.909,1.664-1.593
					c0.273-0.563,0-1.217,0.305-1.778c0.364-0.727,0.941-1.409,1.626-1.35c0.774,0,2.193,0.684,2.841-0.161
					c0.235-0.218,0.718,0.467,1.002,0.785c0.102,0.1-0.056,0.271-0.171,0.408c-0.465,0.467-1.194,0.514-1.48,1.209
					c-0.217,0.475,0.057,0.885,0.42,1.007c0.595,0.273,0.779-0.534,1.061-0.944c0.33-0.396,0.681-0.063,1.002,0
					c0-0.126-0.036-0.304,0-0.304c0.693-0.21,1.476-0.092,2.204-0.092c0.851,0,0.398-1.74,0.318-2.778c0-0.229-0.024-0.522,0-0.774
					c0-0.126,0-0.271,0.08-0.395c0.253-0.567,1.353-0.73,1.522-0.126c0.024,0.216,0.071,0.396,0.129,0.581
					c0.054,0.304,0.206,0.485,0.591,0.304c0.09-0.059,0.205-0.151,0.228-0.304c0.142-0.331,0.079-0.867,0.294-1.046
					c0.33-0.343,0.796,0.51,1.328,0.589c0.537,0.126,1.132,0.126,1.573-0.183c0.375-0.225,0.375-0.669,0.056-1.118
					c-0.123-0.204-0.429-0.234-0.496-0.143c-0.493,0.512-1.132,0.386-1.664,0.386c-0.498,0-0.74-0.613-1.159-0.909
					c-0.466-0.33-1.048,0.341-1.596,0.114c-0.513-0.24-0.77-0.74-0.473-1.217c0.118-0.229,0.473-0.455,0.771-0.626
					c0.635-0.318,1.364-0.318,1.715-0.865c0.273-0.489,0.44-1.095,0.478-1.649c0.035-0.308,0.34-0.308,0.511-0.343
					c0.745-0.261,1.581-0.082,2.229-0.399c0.741-0.283,1.308-0.916,2.035-1.419c0.359-0.192,0.693-0.413,1.107-0.502
					c0.203-0.055,0.319-0.405,0.361-0.557c0.15-1.24-0.192-2.394,0-3.699c0.094-0.342,0.616-0.557,0.359-0.931
					c-0.08-0.135-0.596,0.092-0.72-0.08c-0.285-0.236-0.537-0.73-0.118-0.992c0.318-0.284,1.011-0.033,1.253-0.475
					c0.421-0.594,0.209-1.707-0.463-1.923c-0.672-0.341-1.421,0.283-2.196,0.124c0.089,0.3-0.317,0.398-0.433,0.398
					c-0.956,0.315-1.036-0.865-0.868-1.515c0-0.133,0.096-0.217,0.194-0.172c0.23,0.039,0.276-0.283,0.318-0.558
					c-0.216,0-0.487-0.019-0.68,0c-0.843,0.422-1.22,1.321-2.058,1.751c-0.104,0.092-0.104,0.251-0.041,0.392
					c0.041,0.103,0.162,0.263,0.287,0.206c0,0.535,0.177,1.421-0.738,1.205c-0.08-0.039-0.08-0.228-0.146-0.251
					c-0.23-0.171-0.748-0.293-0.879,0c-0.142,0.604,1.088,0.877,0.791,1.481c-0.479,0.842-1.644,0.999-2.598,1.456
					c-2,0.783-4.073-0.118-6.196,0.341c-1.115,0.215-2.257,0.064-3.428-0.25c-0.831-0.161-0.992,0.565-1.424,1.125
					c-0.033-0.108-0.09-0.218-0.238-0.171c-0.054-0.433,0.208-0.763,0.104-1.206c-0.048-0.342-0.59-0.3-0.718-0.583
					c-1.391-2.614-4.757-2.286-7.314-1.851c-0.478,0.043-0.66,0.534-0.97,0.828c-0.521,0.469-1.239-0.065-1.805,0.308
					c-0.253,0.159-0.351,0.522-0.566,0.569c-0.775,0.216-1.596-0.569-2.259-0.161c-0.44,0.377-0.988,0.434-1.451,0.65
					c-0.16,0.129-0.16,0.479-0.215,0.785c0,0.229-0.393,0.169-0.514,0.169c-0.717,0.228-1.777-0.147-1.911,0.876
					c0.021,0,0.205,0,0.261,0c0.281,0.822-0.128,1.74-0.902,2.06c-0.887,0.304-1.867,0.24-2.737,0.591
					c-0.424,0.143-0.992,0.559-1.15,0.946c-1.391,2.457-2.712,4.981-2.8,7.801c0,0.104,0,0.184,0,0.308
					c0,0.184,0.294,0.352,0.294,0.42c-1.354,2.914-2.265,4.392-3.845,7.177c-0.647,1.13-1.423,3.882-0.264,4.816
					c0.583,0.479-0.318,1.625-1.159,1.684c-1.068,0.045-2.503-0.218-2.889-1.387c-0.193-0.501-1.084-0.593-1.765-0.683
					c0,0,0.045,0,0.089,0l-0.51-0.059c-0.799,0-1.651-0.169-2.321,0.059c-1.216,0.318-1.309,1.739-1.854,2.706
					c-0.375,0.867-1.772,0.653-2.187,1.468c-0.202,0.351,0.199,0.946-0.111,1.456c-0.218,0.341-0.683,0.341-0.807,0.729
					c-0.082,0.218-0.136,0.523-0.274,0.728c-0.309,1.126-0.526,2.151-0.263,3.265c0.024,0.32,0.024,0.65,0.112,0.866
					c0.289,1.172-0.088,2.184-0.599,3.14c-0.764,1.104-2.107,1.104-3.334,1.488c-0.512,0.228-1.142-0.304-1.767-0.169
					c-1.401,0.261-2.766-0.33-4.093,0.126c-0.082,0.043-0.342,0.216-0.454,0.316c-0.686,0.269-0.926-0.487-1.31-0.822
					c-0.414-0.408-0.458-1.125-0.879-1.343c-0.805-0.387-1.913,0.055-2.481,0.866c0.377-0.044-0.01,0.433,0.287,0.433
					c-0.887,0.044-1.562,0.822-2.243,1.136c-0.899,0.492-1.1-1.089-1.18-2.035c-0.094-0.479-0.854-0.785-1.539-0.435
					c-0.111,0.139-0.261,0.251-0.261,0.502c-0.207,0-0.376-0.251-0.567-0.07c-0.604,0.671,0.466,0.591,0.785,0.991
					c0.207,0.193-0.056,0.432-0.283,0.592c-0.311,0.251-0.776-0.262-0.821,0c-0.151,0.452-0.423,0.694-0.783,0.56
					c0,0.133-0.062,0.171,0,0.262c0,0.126,0.098,0.215,0.223,0.126c-0.343,0.137-0.681,0.351-0.932,0.159
					c-0.318-0.159-0.216-0.683-0.318-1.105c-0.066-0.092-0.418,0-0.418,0.137c-0.116,0.683,0.067,0.901-0.674,0.946
					c0.082,0.247-0.193,0.679,0.173,0.748c0.384,0.192,0.853-0.243,1.196,0c0.545,0.557,0.474,1.426,0.633,2.208
					c0,0.043-0.159,0.103-0.238,0.103c0.151,0.404,0.238,1.441-0.351,0.997c-0.72-0.418,0.111-1.45-0.305-2.1
					c-0.078-0.127-0.511-0.043-0.853-0.043c0.42,1.046-0.492,2.143,0.42,3.153c0.354,0.453-1.083,1.068-0.557,1.609
					c0.305,0.31,0.839,0.614,1.296,0.707c0.252,0.027,0-0.525,0.079-0.707c0.08-0.237,0.829-0.494,0.99-0.161
					c0.079,0.229,0.191,0.511,0.191,0.868c-0.351-0.093-0.713,0.079-1.008,0.218c0.295,0.67-0.14,1.133-0.252,1.782
					c0,0.137,0.215,0.396,0.252,0.569c0.178,0.512,1.024,0.047,1.285,0.465c0.192,0.343-0.389,0.734-0.196,1.197
					c0.151,0.306,0.651,0.131,0.869,0.389c0.32,0.196,0.202,0.6,0.169,0.993c0.317-0.043,0.821,0.304,0.683,0.727
					c0.377,0.147,0.457-0.286,0.421-0.548c0.84,0.036,0.498-0.776,0.591-1.43c-0.287,0.143-0.261-0.459-0.591-0.218
					c-0.158-0.455,0.036-0.956-0.158-1.366c-0.227-0.467-0.915-0.569-1.01-1.193c0.58,0.126,1.01-0.08,1.371-0.695
					c0.207-0.31,0.719,0.133,0.923,0.559c0.104,0.104,0.035,0.226,0.035,0.399c0.524-0.173,0.524,0.361,0.717,0.602
					c0.433,0.293,0.567,0.82,1.056,1.018c0.741,0.22,1.468,0.22,2.219,0.08c-0.065-0.336,0-0.691,0.198-0.805
					c0.328-0.294,0.497,0.343,0.91,0.375c-0.184,0.736,0.193,1.336,0.783,1.699c0.151,0.032,0.398-0.056,0.535,0.032
					c0.239,0.169,0.343,0.561,0.684,0.67c0.241,0.058,0.487-0.112,0.695-0.08c0.375,0.08,0.375,0.39,0.441,0.783
					c0.046,0.037,0.238,0.161,0.238,0.3c0.695-0.137,1.468,0.045,1.659,0.651c0.353,0.887,0.982,1.58,1.381,2.377
					c0.159,0.41,0.861,0.545,0.956,0.914c0.042,0.304,0.247,0.498,0.361,0.565c0.456,0.524,1.14,0.685,1.811,0.854
					c0.238,0.088,0.624-0.374,1.046-0.565c0.217-0.069,0.463,0.142,0.501,0.193c0.639,1.038,0.798,2.443,1.821,3.039
					c0.518,0.304,0.669,0.925,1.213,1.079c0.332,0.08,0.733-0.264,1.062,0c0.214,0.159,0.286,0.605,0.455,0.639
					c0.75,0.35,1.343,0.809,1.5,1.626c0.026,0.125,0.105,0.385,0.31,0.433c0.678,0.08,1.248-0.399,1.614-0.047
					c0.501,0.472,1.148,0.684,1.593,1.153c0.136,0.181,0.512,0.314,0.635,0.181c0.184-0.23,0.094-0.65,0.238-0.863
					c0.199-0.375,0.695-0.255,1.061-0.375c0.455-0.188,0.5-1.039,0.989-1.075c0.844-0.137,1.177,0.888,1.844,1.287
					c0.045,0.08,0.305,0.16,0.398,0.25c0.741,0.396,0.407,1.731,1.285,1.82c1.037,0,1.578,0.92,2.505,1.089
					c0.695,0.218,1.247,0.387,1.873,0.775c0.206,0.137,0.56,0.137,0.801,0.049c0.393-0.152,0.749-0.334,1.069-0.563
					c0.886-0.558,2.035-0.606,2.932-1.194c0.196-0.137,0.388-0.389,0.636-0.479c1.494-0.646,3.153,0.567,4.702-0.25
					c0.372-0.175,0.898-0.175,1.353-0.477c0.934-0.651,1.205-1.97,0.911-2.995c-0.654-1.625-1.22-3.322-2.353-4.733
					c-0.551-0.695-1.288-1.077-1.939-1.787c-0.124-0.19-0.648-0.132-0.956-0.271c-0.61-0.271-0.513-0.989-0.393-1.594
					c0-0.216-0.665-0.216-0.775-0.433c-0.217-0.385,0-0.84,0.055-1.229c0.036-0.182-0.23-0.343-0.271-0.343
					c-0.879-0.169-1.675-0.569-2.562-0.432c-0.289,0.037-0.552-0.271-0.809-0.433c-0.158-0.136,0.044-0.433,0.167-0.477
					c0.512-0.433,1.118-0.738,1.759-0.979c-0.23-0.306-0.255-0.787-0.061-0.9c0.343-0.342,0.252-0.956,0.137-1.294
					c0-0.127-0.137-0.414-0.478-0.414c0.067-0.827,0.545-1.468,0.067-2.194c-0.521-0.695-1.241-1.089-1.425-1.979
					c0-0.09-0.43-0.304-0.43-0.447c0-0.998,0.305-2.101,0.105-3.114c-0.151-0.435-0.642-0.941-0.263-1.206
					c0.158-0.126,0.536-0.396,0.863-0.479c0.709-0.263,0.947-0.738,0.591-1.217c-0.354-0.492-1.069,0-1.589-0.171
					c-0.243-0.068-0.272-0.239-0.296-0.468c-0.127-0.412,0.296-1.058-0.096-1.286c-0.318-0.114-0.615-0.435-0.759-0.653
					c-0.333-0.509-0.054-1.091,0.328-1.604c-0.223,0.022-0.127-0.399-0.384-0.261c-0.082-0.534,0.317-1.14,0.09-1.603
					c-0.172-0.479-0.57-1.075-1.161-0.813c-0.058,0,0,0.171-0.058,0.171c-0.317,0.308-0.689,0.392-1.032,0.09
					c-0.071-0.09-0.071-0.388,0-0.614c0.236-0.296,0.714-0.171,0.976-0.386c0.478-0.492,0.056-1.15-0.171-1.415
					c-0.728-0.637-1.036-1.203-0.875-2.104c-0.832-0.114-2.107-0.214-2.043-1.389c0.054-1.022-0.185-1.964-0.438-3.012
					c-0.203-0.73-0.16-1.489,0.308-2.013c0.13-0.159,0.273-0.457,0.502-0.479c1.069-0.148,2.387,0.08,2.992-0.933
					c0.387-0.726-0.446-1.856,0.203-2.327c1.092-0.826,2.729-0.277,4.061-1.038c0.411-0.308,0.351-0.875,0.228-1.333
					c-0.173-0.514-0.5-1.048-0.787-1.521c-0.453-0.673-1.524-0.343-1.831-1.06c-0.147-0.39-0.147-0.783,0-1.125
					c0.243-0.522,0.695-1.001,1.24-1.262c1.206-0.467,2.345-0.115,3.369,0.479c0.332,0.183,0.649,0.546,0.876,0.913
					c0.065,0.126,0.116,0.308,0.184,0.453c0.318,1.366,0.783,2.826,0.318,4.062c-0.215,0.422-0.731,0.683-0.592,1.332
					c0.338-0.284,0.466,0.171,0.466,0.275c0.247,0.93,0.795,2.219,0,2.8c-1,0.614-0.919-0.206-1.959,0
					c-0.51,0.053-0.898-0.09-0.844,0.375c0.038,0.271,0.432,0.885,0.685,0.966c2.409,0.614,3.667,0.81,6.202,1.217
					c0.536,0.13,0.942,0.763,1.58,0.854c0.466,0.067,0.992,0.318,1.517-0.308c0.156-0.216,0.649,0,0.704,0.137
					c0.129,0.489,0.421,0.489,0.741,0.661c0.775,0.375,0.522,2.343,1.541,1.702c0.551-0.363,1.027,0.039,1.644-0.087
					c-0.616,0.843-0.299,1.67,0.298,2.273c0.479,0.594,1.172,0.867,1.75,1.413c0.454,0.524,1.182,0.388,1.251-0.34
					c0.113-0.775-0.721-1.676,0.271-2.343c0.958,1.35-0.271,3.038,0.733,4.276c0.068,0.125,0.123,0.182,0.178,0.295
					c0.458,0.569,0.835,1.165,1.437,1.091c0.442-0.148,0.625-0.569,0.844-1.036c0.01-0.169,0.079-0.351,0.123-0.39
					c0.071-0.442,0.251-0.738,0.374-1.109c0.217-0.604,0.967-1.084,0.843-1.78c0-0.214-0.054-0.501-0.054-0.683
					c0.054-0.946,1.09-1.544,1.988-1.389c0.263,0.057,0.068-0.155,0.309-0.343c0.384-0.294,0.297-1.178,0.649-1.621
					c0.294-0.39,0.637-0.763,0.835-1.15c0.15-0.251,0.438-0.536,0.323-0.875C135.206,188.276,135.206,187.808,135.549,187.763z"/>
				<path fill="#FFFFFF" d="M107.065,186.125c-0.378-0.261-0.686-0.069-0.932,0.194c-0.254,0.261-0.298,0.591-0.131,0.795
					c0.185,0.318,0.378,0.695,0.412,1.014c0,0.683-0.172,1.343-0.059,2.071c0.159,0.547,0.798,1.513,1.151,0.877
					c0.396-0.706,1.012-1.762,0.536-2.619C107.653,187.663,107.902,186.617,107.065,186.125z"/>
				<path fill="#FFFFFF" d="M105.73,192.073c0.104,0.25,0.217,0.422,0.319,0.685c0.192,0.559,1.102,0.298,1.43-0.092
					c0.048-0.216,0-0.593-0.246-0.797c-0.249-0.283-0.66-0.239-0.879-0.387c-0.169-0.045-0.354-0.239-0.479-0.184
					C105.676,191.483,105.676,191.814,105.73,192.073z"/>
				<path fill="#FFFFFF" d="M107.336,194.738c0-1.038-0.92-1.356-1.605-0.73c-0.875,0.73,0.146,2.045,0.809,2.993
					c0.104,0.227,0.225,0.532,0.367,0.783c0.317,0.343,0.932,0.217,1.136-0.171c0.16-0.351,0.285-0.479,0.478-0.83
					C108.779,196.057,108.359,194.738,107.336,194.738z"/>
				<path fill="#FFFFFF" d="M105.3,189.314c0-0.161-0.265-0.161-0.317-0.141c-0.414,0.141-0.526,0.467-0.592,0.844
					c-0.118,0.544,0.066,1.059,0.441,1.466c0.177,0.225,0.47-0.044,0.592-0.407C105.676,190.518,105.342,189.916,105.3,189.314z"/>
				<path fill="#FFFFFF" d="M108.131,193.441c0.147-0.126,0.458-0.387,0.389-0.729c0.261,0.044,0.543,0,0.728-0.308
					c0.175-0.132-0.184-0.33-0.088-0.534c-0.568-0.159-0.956,0.399-1.397,0.797C107.359,193.056,107.902,193.61,108.131,193.441z"/>
				<path fill="#FFFFFF" d="M107.426,199.503c-0.09,0.522,0,0.867,0.351,0.977c0.175,0.045,0.502,0.125,0.502-0.11
					c0.045-0.32,0.248-0.63,0.045-0.914c-0.045-0.042-0.194,0-0.23,0C107.776,199.287,107.653,199.742,107.426,199.503z"/>
				<path fill="#FFFFFF" d="M109.204,204.521c0.159-0.396,0.51-0.81-0.142-1.205c-0.123-0.044-0.441-0.044-0.633-0.044
					C108.427,203.873,108.779,204.35,109.204,204.521z"/>
				<path fill="#FFFFFF" d="M66.016,221.438c-0.129,0.071-0.169,0.717,0,0.888c0.192,0.218,0.717,0.137,1.021,0.137
					C66.812,221.941,66.845,221.005,66.016,221.438z"/>
				<path fill="#FFFFFF" d="M70.477,225.946c-0.391,0.695,0.455,1.439,1.467,1.529c0-0.343,0.122-0.756-0.055-1.019
					C71.533,225.977,70.658,225.554,70.477,225.946z"/>
				<path fill="#FFFFFF" d="M72.464,228.642c-0.113,1.238,0.376,2.065,1.627,2.235C74.241,229.57,73.74,228.813,72.464,228.642z"/>
				<path fill="#FFFFFF" d="M140.942,193.839c1.125-0.367,2.522-0.671,3.843-0.671c2.983-0.067,2.813-3.854,4.335-6.258
					c0.33-0.591-0.18-1.913-0.603-2.537c-1.007-1.627-4.174,0.225-4.895-1.489c-0.415-0.968,2.13,0.614,2.373-0.905
					c0.046-0.391-0.195-0.897-0.501-1.044c-0.409-0.236-1.209-0.283-1.526,0c-1.604,1.346-1.897,3.662-2.718,5.188
					c-1.702,2.946-4.765,5.073-6.394,8.362c-0.263,0.49,0.116,0.887,0.522,1.069C137.607,196.309,139.132,194.225,140.942,193.839z"
					/>
				<path fill="#FFFFFF" d="M153.149,186.525c-0.42,0.145-0.892,0.263-1.105,0.557c-0.18,0.433-0.25,1.138,0,1.538
					c0.133,0.189,0.812,0.223,0.988,0c0.321-0.343-0.113-0.765-0.474-0.972C152.919,187.333,153.286,187.082,153.149,186.525z"/>
				<path fill="#FFFFFF" d="M144.141,196.783c0.941,1.126,3.368,0.75,3.102-0.328c-0.286-0.942-1.887-1.479-2.981-1.164
					C143.571,195.513,145.491,196.309,144.141,196.783z"/>
				<path fill="#FFFFFF" d="M147.302,205.637c0.966-0.422,0.466-1.362,0.601-2.193c-1.009,0.433-1.543,1.147-1.701,2.193
					C146.584,205.637,146.959,205.771,147.302,205.637z"/>
				<path fill="#FFFFFF" d="M159.67,187.648c0.098-0.063,0.192-0.738,0-0.977c-0.212-0.145-0.655,0-1.014-0.092
					c-0.446-0.18-0.597-0.565-0.685-1.046c0-0.604-0.569-1.034-0.406-1.702c-0.754,0.338-0.709,1.17-0.473,1.531
					C157.757,186.376,158.21,187.969,159.67,187.648z"/>
				<path fill="#FFFFFF" d="M143.328,179.207c-0.455-0.234-0.795,0.057-0.455,0.471c0.173,0.216,0.695,0.082,1.002,0.09
					C143.719,179.584,143.622,179.311,143.328,179.207z"/>
				<path fill="#FFFFFF" d="M63.317,205.214c0.161-0.261-0.182-0.452-0.389-0.693c-0.296-0.249-0.647,0.068-0.873-0.249
					c0,0.249-0.071,0.577,0.105,0.773C62.363,205.376,62.928,205.637,63.317,205.214z"/>
				<path fill="#FFFFFF" d="M67.994,205.237c0.47-0.238,1.117-0.42,0.8-1.135c0-0.047-0.116,0-0.217,0
					c-0.748-0.447-1.729-0.275-1.562,0.624C67.038,205.125,67.532,205.545,67.994,205.237z"/>
				<path fill="#FFFFFF" d="M145.266,157.583c0.184-0.455,0.932-0.546,0.827-1.038c-0.052-0.218-0.534-0.218-0.74-0.218
					c-0.342,0.026-0.273,0.501-0.273,0.923c-0.133-0.035-0.249,0-0.249,0.114C144.833,157.583,145.197,157.662,145.266,157.583z"/>
				<path fill="#FFFFFF" d="M147.653,156.659c0.116-0.114,0.534-0.442,0.191-0.728c-0.281-0.261-0.747-0.261-0.885-0.137
					C146.63,156.155,147.149,157,147.653,156.659z"/>
				<path fill="#FFFFFF" d="M140.351,174.68c-0.299,0.775,1.115,1.739,1.819,1.287c0.558-0.341,0.303-1.33-0.239-1.613
					C141.418,174.076,140.534,174.201,140.351,174.68z"/>
				<path fill="#FFFFFF" d="M141.988,179.892c0.31-0.284,0-0.685-0.248-0.84c-0.272-0.239-0.797-0.119-1.203,0
					c-0.106,0.053-0.231-0.08-0.378-0.119c-0.105,0.331,0.215,0.489,0.378,0.489C141.099,179.425,141.578,180.21,141.988,179.892z"
					/>
				<path fill="#FFFFFF" d="M139.849,181.348c-0.387,0.239-0.305,0.977,0.091,1.274c0.431,0.216,1,0.125,1.227-0.408
					c0.159-0.446,0.445-1.081,0-1.401C140.632,180.438,140.371,181.042,139.849,181.348z"/>
				<path fill="#FFFFFF" d="M138.472,179.425c0.044,0.718-0.338,1.401-0.171,2.072c0.115,0.396,0.66,0.271,0.741,0
					c0.217-0.625,0-1.185,0.5-1.607c-0.175-0.053-0.39-0.303-0.39,0.16c0.047-0.16,0.195-0.296,0.104-0.442
					C139.044,179.368,138.779,179.425,138.472,179.425z"/>
				<path fill="#FFFFFF" d="M147.596,217.311c0.035,0.012,0.054,0,0.088,0.012c0.024,0,0.058,0,0.08-0.012
					C147.684,217.311,147.653,217.311,147.596,217.311z"/>
				<path fill="#FFFFFF" d="M190.627,227.308c0.053-0.032,0.009-0.126,0-0.173c-0.017,0.13-0.158,0.218-0.277,0.173
					C190.464,227.308,190.61,227.353,190.627,227.308z"/>
				<path fill="#FFFFFF" d="M151.134,201.337c-0.257,0.089-0.215-0.241-0.257-0.3c-0.238-0.251-0.49-0.251-0.581-0.604
					c-0.252-0.496-0.673,0.351-1.176,0.308c-0.055,0-0.18,0.171-0.11,0.351c0.44,0.581-0.069,0.822-0.433,1.24
					c-0.232,0.471,0.454,0.501,0.599,0.983c0.23,0.544-0.368,1.009-0.236,1.603c-0.146,0.151-0.363,0.422-0.671,0.901
					c-0.082,0.067-0.343,0.549-0.217,0.763c0.444,0.522,1.24-0.521,1.715-0.604c0.433,0,0.502,0,0.869-0.264
					c0.496-0.296,0.977-0.477,1.158-1.034c0.071-0.206-0.795-0.298-1.059-0.33c0.396-0.991-0.16-1.283,0.024-2.367
					C150.759,201.948,151.269,201.337,151.134,201.337z"/>
				<path fill="#FFFFFF" d="M155.229,214.271c0,0.047,0.261,0.071,0.33,0c0.419-0.314,0.465-0.877,0.243-1.216
					c-0.154-0.286-0.773-0.286-0.827,0.145C154.866,213.575,155.037,213.952,155.229,214.271z"/>
				<path fill="#FFFFFF" d="M155.832,212.292c0.408-0.088,0.151-0.512-0.043-0.775c-0.132-0.137-0.467-0.21-0.51-0.088
					C154.981,211.905,155.274,212.507,155.832,212.292z"/>
				<path fill="#FFFFFF" d="M159.862,214.339c-0.094-0.022-0.192-0.159-0.127-0.216c-0.352,0-0.723-0.23-1.146-0.12
					c-0.113,0-0.412-0.076-0.624-0.076c-0.049,0.338-0.169,0.812,0.235,0.93C158.802,214.909,159.405,214.909,159.862,214.339z"/>
				<path fill="#FFFFFF" d="M166.853,213.704c0.142,0,0.039-0.651-0.087-0.686c-0.6-0.12-1.117,0.514-1.749,0.296
					c0,0.263-0.062,0.432-0.197,0.583c-0.058,0.058-0.255,0.037-0.41,0.037C165.073,214.739,166.13,213.952,166.853,213.704z"/>
				<path fill="#FFFFFF" d="M169.486,211.31c0.265,1.064,1.443,0.563,1.57-0.177c0-0.517-0.716-0.517-0.947-0.125
					c0.057-0.09,0.108-0.232,0.184-0.35C169.988,210.917,169.392,210.917,169.486,211.31z"/>
				<path fill="#FFFFFF" d="M201.87,189.698c-0.232,0.569,0.791,0.683,1.292,0.864c0.612,0.182,1.617,0.092,1.788-0.479
					c0.288-1.012-0.837-2.047-1.92-1.923C202.111,188.242,202.18,189.025,201.87,189.698z"/>
				<path fill="#FFFFFF" d="M202.054,224.302c-0.342-0.116-0.987-0.116-0.987,0c-0.779,3.349-3.873,7.975-0.171,10.22
					c1.62,1.023,3.633-0.999,3.885-2.055C205.398,229.938,205.116,225.809,202.054,224.302z"/>
				<path fill="#FFFFFF" d="M191.817,209.493c-0.513,0.286-0.616,1.515,0.192,1.515c0.331,0,0.693-0.263,0.971-0.479
					c0.3-0.337,0.257-0.807-0.094-0.909C192.524,209.493,192.112,209.297,191.817,209.493z"/>
				<path fill="#FFFFFF" d="M194.264,243.916c-0.318,0.561-0.236,1.256,0.306,1.627c-0.008-0.502,0.921-1.118,0.237-1.627
					C194.563,243.655,194.379,243.814,194.264,243.916z"/>
				<path fill="#FFFFFF" d="M209.794,164.534c-0.469-0.07-0.628,0.079-0.788,0.34c-0.114,0.442,0.049,0.968-0.114,1.442
					c-1.091,3.038-4.596,5.792-2.945,9.204c0,0.057,0.25,0.057,0.293,0c0.975-0.655,1.56-1.56,2.084-2.514
					c0.999-2.094,1.884-4.245,2.581-6.631C211.021,165.647,210.76,164.625,209.794,164.534z"/>
				<path fill="#FFFFFF" d="M204.114,176.615c-0.261,0.478,0.334,0.853,0.736,0.649c0.394-0.171,0.655-0.842,0.299-0.944
					C204.843,176.174,204.297,176.174,204.114,176.615z"/>
				<path fill="#FFFFFF" d="M169.568,155.729c-0.391-1.244-1.378-0.057-2.178-0.208c-0.338-0.034-0.497-0.465-0.689-0.465
					c-0.3,0.053-0.565,0.1-0.775,0.304c-0.535,0.308-0.127,1.125,0.416,1.023c0.424,0,0.71-0.593,0.893-0.226
					c0.409,0.671,0.135,1.819,1.173,1.584c0.667-0.159,1.086-0.642,1.805-0.706c0.724-0.039,0.805-0.821,0.724-1.364
					c0.744-0.092,1.637-0.705,2.123-0.092c0.225,0.214,0.293,0.684,0.478,0.967c0.229,0.514,0.742,0.636,1.276,0.661
					c0.652-0.159,1.327-0.106,1.827-0.661c0.526-0.646,0.477-1.438-0.191-1.878c-0.278-0.182-0.752,0.057-1.02-0.182
					c-0.568-0.304-0.972-0.785-1.53-0.999C171.92,152.962,170.746,154.669,169.568,155.729z"/>
				<path fill="#FFFFFF" d="M175.432,157.218c-0.2,0-0.416,0-0.632-0.01c-0.03,0-0.045,0-0.069,0.01H175.432z"/>
				<path fill="#FFFFFF" d="M162.761,156.659c0.685-0.126,1.296-0.114,2-0.034c0-0.08,0-0.092,0-0.137
					c-0.055-1.126-1.173-1-1.796-0.557c-0.047,0,0,0.171,0,0.171c-0.237,0.115-0.535-0.045-0.663,0.057
					C162.031,156.488,162.439,156.798,162.761,156.659z"/>
				<path fill="#FFFFFF" d="M165.233,161.177c0.734-0.946,1.768-1.56,2.875-2.083c0.081,0,0-0.241,0-0.375
					c-0.042,0.092-0.078,0.171-0.132,0.304c-0.218-0.51-0.599-0.877-1.083-1.113c-0.039,0.455-0.55,0.758-0.756,0.942
					c-0.565,0.422-1.271,0.892-1.523,1.48c-0.198,0.487-0.299,1.262,0.106,1.572C164.955,162.062,165.081,161.426,165.233,161.177z"
					/>
				<path fill="#FFFFFF" d="M154.866,154.487c-0.078,0.319-0.159,0.72,0.265,0.784c0.517,0.148,0.517-0.667,0.257-0.838
					C155.229,154.316,154.931,154.249,154.866,154.487z"/>
				<path fill="#FFFFFF" d="M130.654,139.103c0.8,0.397,1.768,0.397,2.61,0.432c0.141,0,0.624-0.498,0.374-0.85
					c-0.468-0.367-1.197-0.057-1.616-0.614l-0.4-0.08c-0.693-0.218-0.871,0.422-1.261,0.785
					C130.176,139.037,130.63,139.103,130.654,139.103z"/>
				<path fill="#FFFFFF" d="M192.454,150.414c-0.299,0.41-0.877,0.228-1.424,0.41c-0.271,0.069-0.249,0.626-0.11,0.797
					c0.521,0.75,1.147,0.316,1.875,0.159c-0.21,0.271,0.184,0.229,0.282,0.316c0.334,0.225,0.477-0.566,0.798-0.316
					c0.09,0.088,0.09,0.545,0,0.592c-0.48,0.25-0.48,0.728-0.897,0.921c-0.283,0.192-0.828,0.192-1.077-0.33
					c-0.041-0.069-0.263,0-0.391,0c0.065,0,0.104,0,0.13,0c-0.208,0.351,0,0.967-0.208,1.138c-0.828,0.738-2.68,1.319-1.87,2.435
					c0.612,0.83,2.003,0.594,3.127,0.502c0.129,0,0.28-0.208,0.241-0.319c-0.116-1.046,0.454-1.229,1.146-1.751
					c0.292-0.239-0.214-0.569-0.542-0.865c-0.308-0.148,0.008-0.785,0.329-0.785c0.429-0.021,0.429-0.566,0.821-0.442
					c0-0.288,0-0.442,0-0.696c0.659,0.08,1.214-0.377,1.084-0.942c-0.219-0.75-0.901-1.4-0.653-2.206
					c0.043-0.302,0.289-0.614,0.73-0.735c0.215-0.053,0.332-0.33,0.157-0.477c-0.104-0.087-0.234-0.044-0.361-0.044
					c0,0.263-0.412,0.159-0.298,0.375c-0.718,0.149-1.412,0-2.043,0.39C192.592,148.888,192.885,149.834,192.454,150.414z"/>
				<path fill="#FFFFFF" d="M185.252,157.252c0.042,0.806,0.934,0.41,1.39,0.135c-0.304,0.117-0.069-0.261-0.304-0.287
					C185.95,157.036,185.631,157.252,185.252,157.252z"/>
				<path fill="#FFFFFF" d="M195.357,155.672c-0.477,0.655,0.833,0.655,1.35,0.385c0.025,0,0.018-0.079,0-0.126
					c0.044-0.137,0-0.204-0.107-0.261C196.109,155.362,195.497,155.421,195.357,155.672z"/>
				<path fill="#FFFFFF" d="M197.449,152.256c-0.158-0.08-0.432-0.024-0.648-0.024c0.295,0.137,0.295,0.752,0.754,0.661
					c-0.024-0.08-0.079-0.147-0.079-0.308C197.449,152.495,197.537,152.324,197.449,152.256z"/>
				<path fill="#FFFFFF" d="M182.405,124.919c0.633,0.365,1.048,0.889,1.246,1.435c0.297,0.73-0.238,1.672,0.247,2.398
					c0.09,0.308,0.399,0.522,0.526,0.684c0.307,0.351-0.014,1.003,0.09,1.446c0.273,0.966,0.343,1.854,0.465,2.775
					c0.378-0.08,0.378,0.581,0.852,0.422c0,0.565,0.277,0.999,0.355,1.56c0.159,0.624,0.897,0.304,1.309,0.747
					c0.654,0.913,1.264,1.821,2.23,2.457c0.293,0.195,0.738,0.195,0.9,0.471c0.078,0.125,0,0.341,0.155,0.341
					c1.287,0.216,3.096,0.889,2.455,2.457c0.482-0.351,1.073-0.614,1.231-1.16c0.262-0.967,0.472-2.013,0.045-2.959
					c-0.249-0.49-0.967-0.74-1.117-1.285c-0.122-0.399,0-0.763,0.016-1.068c0.039-0.563-0.744-0.367-0.889-0.63
					c-0.306-0.667-0.554-1.804,0.751-1.702c0.044,0-0.196-0.241-0.127-0.479c-0.45,0-0.852,0.078-1.276,0
					c-0.293-0.035-0.293-0.467-0.293-0.606c-0.135-0.715,0.234-1.608-0.399-2.114c-0.555-0.342-1.272-0.442-1.827-0.828
					c-0.47-0.389-0.865-0.683-1.399-0.993c-0.335-0.216-0.915,0.308-1.163,0c-1.085-1.206-1.849-2.618-2.846-3.982
					c-0.394-0.433-1.166-0.418-1.862-0.316c-0.191,0.045-0.087,0.263-0.132,0.375c0.094,0,0.208,0,0.276,0.047
					C182.455,124.521,182.304,124.805,182.405,124.919z"/>
				<path fill="#FFFFFF" d="M176.105,127.162c-0.455,0.65-0.274,1.486,0.183,1.67c0.659,0.275,1.615,0.228,2.447,0.149
					c0.446-0.08,0.731-0.546,0.982-0.989c0.443-0.683,1.606-0.291,2.476-0.593c-0.135,0.537,0.242,0.477,0.546,0.706
					c-0.036-0.591-0.036-1.396-0.422-1.672c-0.783-0.469-0.831-1.15-1.239-1.876c-0.09-0.251-0.538,0.126-0.538,0.249
					c0.089,1.219-0.93,1.001-1.769,1.319c-0.039,0.08,0.042,0.308-0.039,0.399c0,0.043-0.126,0.043-0.261,0
					c-0.144-0.171-0.264-0.241-0.234-0.512c-0.42,0-1.01,0-1.176,0.271C176.81,126.708,176.382,126.787,176.105,127.162z"/>
				<path fill="#FFFFFF" d="M160.125,100.642c-0.741-1.399-1.891-2.671-1.584-4.459c2.121,0.75,4.018,0.391,6.12-0.284
					c1.568-0.435,3.365,0.318,4.891-0.661c0.2-0.171,0.016-0.695,0.016-1.081c-1.757,0.808-3.226-1.5-4.806-0.489
					c-2.057,1.297-4.276,1.615-6.279,2.139c-1.626,0.375-5.848,0.092-6.042,2.504c2.258,0.022,4.757,0.19,6.153,2.217
					C158.802,100.778,159.596,100.642,160.125,100.642z"/>
				<path fill="#FFFFFF" d="M167.072,110.721c0.616,1.085,1.721,1.317,2.732,1.687c0.184-0.548-0.114-0.811-0.445-1.105
					C168.641,110.721,167.906,110.654,167.072,110.721z"/>
				<path fill="#FFFFFF" d="M165.506,114.077c-0.38,0.171,0.043,0.728,0.42,1.036C165.857,114.634,166.48,113.655,165.506,114.077z"
					/>
				<path fill="#FFFFFF" d="M163.854,112.064c0.102,0.035,0.303,0.035,0.403,0c0.045-0.026,0-0.146,0-0.261
					c0-0.731-0.738-0.934-1.35-1.001c0,0.149-0.059,0.5,0.049,0.534C163.332,111.516,163.43,111.804,163.854,112.064z"/>
				<path fill="#FFFFFF" d="M169.939,119.776c0.042,0.102,0.273,0.219,0.388,0.092c0.148-0.145,0.252-0.351,0.148-0.636
					c0,0,0,0.047,0,0.114c-0.135-0.236,0.169-0.587-0.148-0.808c-0.115-0.042-0.294-0.089-0.339,0
					C169.552,118.937,169.939,119.344,169.939,119.776z"/>
				<path fill="#FFFFFF" d="M172.137,119.876c-0.072,0.33,0,0.566,0.191,0.75c0.175,0.057,0.298,0,0.35-0.112
					c-0.175-0.129-0.175-0.227-0.175-0.433C172.568,119.605,172.201,120.084,172.137,119.876z"/>
				<path fill="#FFFFFF" d="M171.272,121.516c0.097,0.331,0.407-0.112,0.498-0.512c0-0.01,0.039-0.063,0.042-0.102
					c0.052,0.049,0.117,0.092,0.159,0.139c-0.03-0.067-0.089-0.139-0.131-0.21l0,0c-0.311-0.387-0.877-0.695-1.195-0.314
					C170.29,120.938,171.056,120.938,171.272,121.516z"/>
				<path fill="#FFFFFF" d="M172.065,121.756c0.218,0.141-0.295,0.049-0.145,0.263c0.408,0.563,1.125,0.842,1.627,0.683
					c0.249-0.171,0.558-0.683,0.293-0.854c-0.412-0.261-0.986-0.092-1.513-0.092C172.283,121.756,172.169,121.756,172.065,121.756z"
					/>
				<path fill="#FFFFFF" d="M175.257,123.167c0.28-0.159,0.016-0.375,0-0.546c-0.144-0.373-0.359-0.726-0.616-0.491
					c-0.253,0.139-0.437,0.732-0.069,0.946C174.706,123.18,175.002,123.316,175.257,123.167z"/>
				<path fill="#FFFFFF" d="M176.244,125.09c0.138,0.147,0.533-0.145,0.703-0.286c0.104,0,0.047-0.249,0.047-0.394
					c0.159,0.053,0.218,0,0.218-0.146c0.138-0.229,0.071-0.526-0.218-0.626c-0.184-0.067-0.428,0.251-0.659,0.053
					c-0.047,0,0.046-0.125,0-0.216c-0.21-0.159-0.504-0.298-0.65-0.137c-0.27,0.229-0.27,0.651-0.148,0.914
					C175.685,124.521,175.969,124.805,176.244,125.09z"/>
				<path fill="#FFFFFF" d="M174.445,126.569c0.133,0,0.261-0.133,0.286-0.261c0.077-0.283,0.077-0.5,0-0.828
					c-0.025-0.196-0.205-0.196-0.337-0.104c-0.209,0.104-0.19,0.433-0.447,0.488C174.013,126.206,174.184,126.523,174.445,126.569z"
					/>
				<path fill="#FFFFFF" d="M172.627,92.781c-0.054,0-0.164-0.047-0.164-0.124c0-0.027,0.11-0.08,0.164-0.118
					c-0.343-0.361-0.739-0.101-1.138-0.18C171.749,92.781,172.137,93.134,172.627,92.781z"/>
				<path fill="#FFFFFF" d="M195.549,109.449c0.361,0.342,1.158-0.069,1.548,0.342c0.386,0.442,0.684,1.161,1.352,1.161
					c0.417,0,0.738-0.229,0.8-0.604c0.11-1.117-0.331-2.402-1.421-2.891c-1.025-0.308-2.116-0.308-3.136-0.287
					c-0.667,0-0.667,0.774-0.395,1.084C194.64,108.639,195.08,109.027,195.549,109.449z"/>
				<path fill="#FFFFFF" d="M223.435,144.682c-0.737-0.914-0.799-1.913-1.275-2.653c-0.447-0.696-1.53-0.775-2.106-1.593
					c-0.286-0.399,0.237-1.084-0.195-1.4c-0.249-0.196-0.51-0.408-0.558-0.626c-0.352-0.952-0.794-1.583-1.668-2.027
					c0.272-1.113-0.743-1.66-1.792-1.955c-0.044-0.059,0.106-0.353,0.106-0.479c-0.043-0.434-0.578-0.556-0.943-0.683
					c-0.137-0.079-0.417,0-0.469-0.079c-0.533-0.706-1.276-1.252-1.525-1.856c-0.311-0.999-1.27-1.567-2.104-2.115
					c-0.303-0.159-0.564-1.013-0.73-1.013c-0.578,0-1.37,0.045-1.451-0.614c-0.104-1.24-1.105-2.002-2.026-2.75
					c-1.342-0.969-0.16-3.036-0.629-4.551c-0.122-0.636-0.807-0.636-1.407-0.636c-0.217,0-0.432-0.196-0.55-0.422
					c-0.522-0.932-0.121-1.981-0.732-2.844c-0.944-1.332-1.99-2.345-3.02-3.664c-0.591-0.657-1.444-0.554-2.192-0.624
					c-0.217-0.035-0.342-0.159-0.534-0.295c-0.274-0.171-0.35-0.501-0.51-0.765c-0.418-0.75-1.335-1.081-2.092-1.436
					c-1.415-0.577-2.921-0.283-4.41-0.485c-1.187-0.092-2.482,0.33-3.358,1.058c-1.035,0.775-2.243,1.182-3.56,1.421
					c-0.502,0.092,0.192,0.732,0,1.105c-0.293,0.5-1.011,1.036-0.717,1.511c0.144,0.116-0.262,0.038-0.133,0.208
					c0.292,0.286,0.79,0.065,1.185,0.065c0.466,0.07,0.634,0.569,0.899,0.799c0.573,0.604,1.246,1.181,1.58,1.923
					c0.135,0.284-0.396,0.818-0.13,1.089c0.726,0.75,0.588,1.425,0.588,2.331c0,0.375,0.791,0.022,0.974,0.149
					c1.071,0.557,1.268,1.921,0.975,3.001c-0.159,0.579-0.102,1.413,0.151,1.888c0.534,1.038,0.648,2.539,1.625,3.312
					c0.218-0.333,0.475-0.775,0.655-0.73c0.853,0.114,0.864-0.55,1.402-0.854c1.611-1.091,2.954,1.036,3.401,2.265
					c0.44,1.217,0,2.786,0.546,3.993c0.42,1.179,1.175,2.137,2.33,2.73c0.26,0.149,0.313,0.867,0.562,1.389
					c0.119,0.297,0.422,0.696,0.873,0.373c0.265-0.155,0.135-0.728,0.566-0.897c0.355-0.126,0.739,0.112,0.96,0.308
					c1.035,1.281,1.284,3.935,3.396,3.776c-0.044,0.318,0.188,0.557,0.396,0.636c0.432,0.137,0.74-0.478,1.052,0.08
					c0.33,0.479,0.497,1.095,0.954,1.333c0.727,0.222,1.517-0.045,2.239,0.135c0.467,0.137,0.864,0.695,1.197,1.158
					c0.201,0.318,0.454,0.686,0.745,0.995c1.424,1.389,1.963,3.481,3.687,4.539c0.52,0.354,1.023,1.026,1.784,0.817
					c0.224,0,0.066-0.338,0.305-0.387c0.706-0.078,1.116-0.67,1.416-1.103c0.521-0.696,1.308-1.344,2.222-1.764
					c0.016-0.042,0-0.304,0.016-0.342c0.629-0.512,1.424-0.646,2.02-1.206C223.957,145.842,223.672,144.942,223.435,144.682z"/>
				<path fill="#FFFFFF" d="M196.228,141.495c0.184,0.024,0.32,0.091,0.455,0.149c0.139,0.034,0.265,0.022,0.413,0.08
					L196.228,141.495z"/>
				<path fill="#FFFFFF" d="M194.97,145.285c0.268,0.465,0.885,0.557,1.333,0.848c0.501,0.423,0.74,1.039,1.179,1.297
					c0.889,0.501,0.547-0.997,0.966-1.499c0.16-0.092,0.629,0.079,0.741-0.092c0.525-0.728-0.112-1.867-0.765-2.571
					c-0.544-0.512-0.95-1.319-1.741-1.623c-0.404-0.092-0.792-0.069-1.03,0.388c-0.415,0.636,0.01,1.49-0.297,2.139
					C195.174,144.513,194.831,144.897,194.97,145.285z"/>
				<path fill="#FFFFFF" d="M200.129,148.458c-0.359,1.267-0.109,2.616-0.256,3.97c-0.103,0.669-1.131,0.535-1.545,1.114
					c-0.253,0.318-0.368,0.891-0.298,1.297c0.139,0.891,1.159,0.832,1.782,1.162c1.663,0.828,3.168,2.055,4.119,3.742
					c0.341,0.557,0.491,1.343,0.982,1.822c0.485,0.496,1.414,0.496,1.554,1.397c0.073,0.353,0.709,0.477,0.997,0.273
					c0.866-0.706,0.76-2.059,0.153-2.799c-0.396-0.392-0.767-0.914-0.767-1.346c-0.069-1.841-0.616-3.572-1.611-5.165
					c-0.626-0.875-1.695-1.346-2.341-2.149c-0.078-0.184-0.298-0.478-0.13-0.706c0.216-0.434,0.677-0.729,0.783-1.24
					c0.09-0.946-0.987-1.296-1.227-2.22c0-0.043-0.302,0-0.477,0l0.521,0.159C201.477,147.399,200.361,147.571,200.129,148.458z"/>
				<path fill="#FFFFFF" d="M209.859,157.583c-0.14-0.479,0-1.095-0.064-1.688c-0.076-1.009-1.173-1.172-2.015-1.172
					c-0.388,0-0.856-0.125-0.929,0.307c-0.069,0.388-0.069,0.806,0.231,1.293c1.574,1.798,1.443,4.374,2.133,6.466
					c0.224,0.85,1.697,0.171,1.953-0.732c0.139-0.467,0.167-0.977,0.078-1.421c-0.216-0.465-0.659-0.785-0.771-1.309
					C210.352,158.671,209.961,158.216,209.859,157.583z"/>
				<path fill="#FFFFFF" d="M207.392,151.782c-0.692,0.544,0.298,1.113,0.106,1.876c0.121,0,0.19,0,0.281,0
					c0.443,0.204,0.443-0.343,0.552-0.561c-0.826,0.047-0.695-0.84-0.643-1.317C207.617,151.782,207.498,151.71,207.392,151.782z"/>
				<path fill="#FFFFFF" d="M207.016,149.914c0.049-0.441-0.047-0.885-0.55-0.965c-0.086,0.693-0.771,0.522-1.154,0.885
					c-0.477,0.375,0.045,0.989,0.555,1.194c0.114,0,0.114,0.206,0.195,0.206c0.954,0.388,1.713-0.375,1.33-1.321
					C207.392,149.859,207.176,149.914,207.016,149.914z"/>
				<path fill="#FFFFFF" d="M203.698,146.669c0.848,0.502,0.018,1.415,0.677,1.688c0.469,0.314,1.423,0.485,1.868,0.055
					c0.351-0.263-0.012-0.901-0.717-0.942c-0.287-0.039-0.261-0.551-0.212-0.914c-0.178,0-0.322-0.122-0.399-0.202
					c-0.681-0.471,0.573-0.826,0.204-1.413c-0.126-0.128-0.045-0.41-0.204-0.433c-0.25-0.13-0.538,0.021-0.647,0.304
					c-0.217,0.261,0.176,0.603,0.032,0.924C204.114,146.136,203.338,146.435,203.698,146.669z"/>
				<path fill="#FFFFFF" d="M203.215,142.453c-0.395-0.171-1.023,0.214-1.345-0.479c-0.029-0.075-0.351-0.075-0.479,0
					c-0.102,0.057-0.102,0.184-0.171,0.239c-0.222,0.32-0.483,0.561-0.222,0.795c0.355,0.263,0.441,0.514,0.641,0.813
					c0.232,0.442,0.885,0,1.023,0.396c0.102,0.387,0.455,0.512,0.726,0.318c0.329-0.149,0.058-0.716,0.159-1.011
					c-0.208,0.136-0.101-0.374-0.26-0.135C203.387,143.054,203.595,142.589,203.215,142.453z"/>
				<path fill="#FFFFFF" d="M155.229,173.703c0.043,0,0.171,0,0.261,0c0.021-0.132,0-0.304,0.158-0.487
					c0.154-0.227-0.089-0.559-0.248-0.718c-0.23-0.263-0.702,0-0.555,0.49c0,0,0.13,0,0.239,0
					C155.037,173.214,155.037,173.44,155.229,173.703z"/>
				<path fill="#FFFFFF" d="M208.223,165.147c-0.831-0.333-1.757,0.1-2.528,0.575c-1.637,0.844-1.847,3.038-2.875,4.215
					c-0.709,0.795-1.524,1.195-2.508,1.138c-0.123,0-0.5-0.161-0.542-0.479c0-0.476-0.172-0.967,0.191-1.35
					c0.326-0.261,0.705-0.479,0.934-0.867c0.457-0.725,0.102-1.592-0.069-2.273c-0.399-1.488-1.959-2.365-3.377-2.131
					c-1.435,0.288-2.275,1.778-3.07,3.075c0,0-0.297,0.033-0.297,0c-0.541-0.671-1.261-1.026-1.628-1.731
					c-0.09-0.068-0.09-0.229,0-0.378c0.564,0.308,1.087,1.165,1.693,0.812c0.582-0.343,0.072-1.125-0.377-1.287
					c-0.496-0.171-0.974-0.673-1.614-0.603c-0.442,0.033-0.978-0.626-1.126-1.161c-0.179-0.795-0.249-1.841-0.941-2.059
					c-0.739-0.306-1.424-0.342-2.137-0.854c-0.329-0.172-0.738,0.137-1.06,0.116c0.224-0.227,0.038-0.763,0.146-0.763
					c0.889-0.08,1.984-0.08,1.449-1.084c-0.238-0.475-0.718-0.955-1.275-0.555c-0.173,0.08-0.5,0.08-0.569,0.318
					c-0.113,0.153-0.145,0.392-0.252,0.545c-0.153,0.377,0.278,1.08,0,1.309c-0.559,0.373-1.36,0.341-2.053,0.826
					c-0.079,0.04-0.342,0.04-0.457,0c-0.599-0.204-1.545-0.885-1.827-0.575c-0.424,0.512-0.524,1.16-1.028,1.419
					c-0.441,0.22-1.01,0.251-1.478,0.467c-0.812,0.32-0.344,1.356,0,2.109c0.171,0.261,0.053,0.695-0.225,0.896
					c-0.575,0.333-0.702-0.397-0.836-0.683c-0.241-0.729-0.457-1.547-0.457-2.323c-0.069-0.795,0.943-1.309,1.174-2.067
					c0.174-0.469,0.306-1.001-0.021-1.525c-0.365-0.554-0.942-0.825-1.491-0.654c-1.441,0.386-1.859,2.877-3.296,2.227
					c-0.741-0.284-1.391-1.046-2.193-1.424c-0.452-0.308-0.884-0.624-1.394-0.238c-1.01,0.763-2.251,1.205-3.324,1.729
					c-0.959,0.442-1.789,1.568-2.353,2.618c-0.607,1.316-3.019,2.06-3.817,0.49c-0.381-0.765-1.182-1.367-2.042-1.346
					c-0.788,0.128-1.06,1.152-1.923,1.346c-0.626,0.114-0.99-0.1-1.229-0.582c-0.037-0.125-0.037-0.351,0-0.399
					c1.173-0.966,2.379-1.684,3.833-2.239c0.709-0.239,0.797-1.001,0.533-1.688c-0.008-0.112-0.053-0.312-0.159-0.475
					c-0.065-0.365-0.123-0.924-0.25-0.924c-1.777,0.137-3.265,1.396-4.155,3.016c-0.114,0.223-0.215,0.557-0.358,0.557
					c-1.126-0.092-2.278,0.551-3.221-0.092c-0.203-0.124-0.475-1.421-0.616-1.287c-0.455,0.479-0.725,1.075-1.147,1.584
					c-0.115,0.264-0.419,0.386-0.591,0.648c-0.639,0.977,0.591,1.992,0.31,2.777c-0.193,0.398-1.23,0.398-1.9,0.557
					c-0.343,0.118-0.343,0.67-0.307,1.117c0.046,0.351,0.43,0.308,0.66,0.433c0.659,0.652,0.703,1.763,1.547,2.151
					c1.021,0.465,2.263,0.149,3.491,0.465c0.785,0.18,1.385,0.732,1.728,1.538c0.193,0.432,0.842,0.657,0.879,1.328
					c0.036,0.228,0.326,0.442,0.652,0.603c0.364,0.13,0.84-0.249,1.191-0.087c0.52,0.149,0.306,0.832,0.44,1.252
					c0.252,0.81-0.178,1.684,0.677,2.479c0.314,0.271-0.334,1.101-0.694,1.568c-0.16,0.16-0.686,0.16-0.741,0.41
					c-0.211,0.718-0.035,1.376,0.315,1.935c0.264,0.328,0.68,0,0.784,0.229c0.629,0.783,0.891,1.659,1.417,2.377
					c0.227,0.271,0.48,0.624,0.783,0.74c-0.381,0.078-0.486,0.548-0.381,0.716c0.227,0.304,0.748,0.502,1.028,0.216
					c0.433-0.285,0.897-0.385,1.319-0.774c0.247-0.273,0.669-0.171,0.93-0.435c0.296,0.277,0.548,0.891,0.343,1.153
					c-0.628,0.613-1.754,0.195-2.481,0.67c-0.496,0.229-0.998,0.1-1.258,0.5c-0.242,0.253,0,0.83,0.451,0.887
					c1.59,0.343,0.351,2.642-0.422,3.813c-0.184,0.249,0,0.683-0.088,1.172c-0.062,0.208-0.359,0.329-0.537,0.329
					c-1.528,0.137-3.089-0.396-4.481,0.102c-0.478,0.137-0.718,0.812-0.942,1.366c0.145,0,0.224,0,0.273,0
					c-0.403,0.045-0.403,0.487-0.496,0.716c-0.08,0.275-0.043,0.797-0.218,1.046c-1.346,1.479-1.529,3.356-1.776,5.078
					c-0.046,0.521,0.604,0.866,0.981,0.866c0.378,0,0.909-0.433,1.24-0.433c0.697,0.087,0.525,1.156,0.783,1.611
					c0.295,0.534,1.321,0.624,1.436-0.081c0.167-0.605,0.167-1.309,0.367-1.843c0.216-0.738-0.567-1.24-0.717-1.922
					c-0.184-0.649,0.142-1.218,0.517-1.65c0.255-0.25,0.661,0.06,0.828,0.433c0.137,0.39,0.137,0.899,0.294,1.344
					c0.089,0.469-0.239,1.024,0.024,1.35c0.263,0.321,0.422,0.755,0.306,1.14c-0.044,0.206-0.306,0.375-0.444,0.624
					c-0.179,0.524,0.132,1.229-0.3,1.426c-0.456,0.351-0.394,0.989-0.928,1.033c-1.219,0.079-2.695-0.566-2.304-1.934
					c-0.486-0.045-1.002-0.045-1.217,0.389c-0.262,0.544,0,1.411-0.323,1.854c-0.453,0.559-0.747,1.138-1.248,1.709
					c-0.172,0.124,0.241,0.215,0.082,0.396c-0.655,0.762-1.404,1.056-2.202,1.649c-0.043,0-0.079,0-0.079,0.147
					c-0.52,0.343-1.399-0.218-1.604,0.408c-0.299,0.651,0.654,1.091,0.958,1.754c0.18,0.445,0.069,0.967-0.546,1.046
					c-0.887,0.214-1.66,0.092-2.593-0.049c0,0.263-0.24,0.232-0.24,0.312c-0.16,0.783,0,1.419-0.603,2.115
					c-0.385,0.501,0.193,1.117,0.536,1.539c0.39,0.52,0.549,1.238,1.034,1.362c0.386,0.103,0.718,0.443,1.07,0.394
					c0.749-0.191,1.285-0.473,1.581-1.285c0.115-0.473,0.925,0.08,1.459-0.09c0.124-0.043,0.395-0.132,0.496-0.216
					c0.413-0.479-0.101-1.167,0.135-1.444c0.813-0.956,1.733-1.731,2.815-2.426c0.35-0.294,0.893-0.602,1.431-0.422
					c0.403,0.13,0.758,0.394,1.203,0.563c0.412,0.207,0.751,0.492,1.169,0.73c0.088,0.09,0.416,0.204,0.614,0.299
					c0.717,0.304,1.154,1.187,1.938,1.636c0.226,0.114,0.051-0.308,0.293-0.135c0.027-0.716-0.123-1.411-0.465-1.833
					c-0.472-0.695-1.246-1.046-1.767-1.609c-0.198-0.169-0.198-0.667,0.098-0.967c0.062-0.132,0.318-0.132,0.333,0
					c0.424,0.379,0.834,0.379,1.27,0.594c0.865,0.374,0.71,1.672,1.542,2.104c0.448,0.238,0.685,0.905,1.219,0.992
					c0.624,0.215,1.638,0,1.99-0.751c0.278-0.453-0.249-0.716-0.566-1.014c-0.625-0.478,0.317-0.696,0.63-1.07
					c0.544-0.659,0-1.228-0.06-1.866c-0.065-0.264,0.119-0.423,0.278-0.549c0,0,0.044-0.08,0.126-0.127
					c0.361-0.785,0.04-1.637,0.334-2.399c0.11-0.169,0.314-0.143,0.314-0.09c0.22,0.375,0.654,0.65,1.044,0.512
					c0.64-0.159,1.134-0.477,1.582-1.046c0.546-0.717,1.705-0.32,1.986,0.363c0.13,0.522-0.043,1.242-0.455,1.376
					c-1.372,0.202-2.48,0.716-3.503,1.412c-0.137,0.126-0.32,0.218-0.397,0.387c-0.549,0.396-0.759,0.797-0.468,1.652
					c0.055,0.316-0.364,0.657-0.67,0.966c0.521,0.173,0.521,0.82,0.999,0.92c0.864,0.206,1.662,0.239,2.274-0.357
					c0.152-0.221,0.319-0.696,0.229-1.087c0.559-0.071,0.933-0.604,1.53-0.734c1.203-0.191,1.897,1.125,1.585,2.175
					c-0.069,0.206-0.383,0.206-0.479,0.273c-0.63,0.991-1.105,1.958-2.082,2.38c-1.505,0.76-3.336,0.591-4.666,1.363
					c-0.509,0.342-0.668,1.239-1.429,1.454c-0.664,0.173-1.511,0.56-2.188,0c0,0.046,0,0.079,0,0.151
					c0,0.501-1.556,0.159-2.312-0.151c-0.245-0.088-0.098-0.828-0.412-1.111c-0.265-0.174-0.779,0.077-0.892-0.216
					c-0.156-0.159,0-0.549-0.199-0.595c-1.772-0.303-3.423,0.239-5.229,0.046c-0.478-0.046-0.437,0.593-0.832,0.888
					c-0.329,0.158-0.649,0.477-0.992,0.614c-0.713,0.365-1.488,0.876-2.357,0.559c-0.747,0.238-1.442,0.342-2.125,0.471
					c-1.125,0.214-1.761,1.158-2.685,1.792c-0.712,0.479-1.547,0.57-2.339,0.521c-0.231,0-0.107,0.379-0.313,0.379
					c-1.213,0.306-2.32,1.843-3.013,3.166c-0.205,0.351,0.061,0.862-0.159,1.176c-0.635,0.989-0.966,1.962-1.844,2.784
					c-0.089,0.09-0.089,0.351-0.056,0.512c0.984,1.342,2.136,2.241,3.128,3.613c0.241,0.375,0.733,0.375,0.879,0.734
					c0.39,0.861,0.922,1.635,1.38,2.443c0.633,1.149,2.297,1.606,3.728,1.149c0.521-0.146,1.138,0.351,1.618,0.455
					c1.626,0.151,3.351,0.532,4.877-0.288c2.271,0.71,4.647-0.285,6.715,0.71c0.41,0.11,0.41,0.863,0.709,1.363
					c0.479,0.901,1.026,1.808,1.894,2.458c0.728,0.512,1.764,0.853,2.775,0.944c0.286,0,0.331,0.716,0.575,1.01
					c0.3,0.392,0.159,0.993,0.526,1.284c0.501,0.479,0.935,0.82,0.903,1.516c0,0.819-1.001,1.535-0.398,2.617
					c0.143,0.337-0.065,0.898,0.111,1.109c1.289,1.285,2.508,2.496,4.074,3.654c0.151,0.137,0.432,0.328,0.308,0.652
					c0.599,0.174,0.68,0.775,1.083,1.097c0.306,0.393,0.133,0.997,0.444,1.38c0.539,0.638,1.113,1.256,1.725,1.81
					c0.799,0.726,1.905,0.557,2.855,0.76c0.218,0.149,0.48,0.314,0.75,0.394c0.901,0.289,1.88,0.379,2.664-0.22
					c0.445-0.379,0.834-1.071,1.27-1.336c0.68-0.557,1.726-0.509,2.657-0.683c0.184-0.033,0.457-0.134,0.583-0.375
					c0.11-0.534,0.6-0.815,0.567-1.341c0.695-0.038,1.231-0.394,1.794-0.686c1.142-0.591,2.002-1.739,3.074-2.659
					c1.071-0.999,2.872-0.558,3.447-1.684c0.578-1.103-0.225-2.616,0.285-3.902c0.3-0.592,0.669-1.307,0.731-1.967
					c0.095-1.109,0.133-2.261,0.055-3.375c-0.055-0.65-0.729-1.309-0.653-1.949c0.045-0.463,0.85-0.463,1.022-0.852
					c0.397-0.913,0.77-1.854,1.245-2.706c0.078-0.173,0.404-0.253,0.678-0.433c0.411-0.298,0.054-0.763,0.13-1.195
					c-0.332-0.104-0.491-0.479-0.646-0.695c-0.958-1.356-1.844-2.665-3.429-3.311c-0.388-0.115-0.421-0.537-0.599-0.854
					c-0.149-0.125,0.053-0.545-0.094-0.696c-0.422-0.238-0.262-0.638-0.368-0.934h0.381c-0.014-0.007,0-0.033,0-0.033
					c-0.158,0-0.217-0.137-0.217-0.181c0.354-0.944,0.894-1.798,1.605-2.412c0.214-0.206,0.756-0.206,0.826-0.453
					c0.196-0.81,0.149-1.639-0.234-2.322c-0.585-0.991-0.069-1.982-0.227-2.914c-0.151-1.863-0.151-3.558-0.999-5.245
					c-0.188-0.52-0.657-0.91-1.321-0.726c-0.313,0.047-0.29,0.463-0.469,0.726c-0.224,0.264-0.273,0.606-0.387,1.073
					c-0.265,0.613-1.096,0.807-1.309,1.456c-0.115,0.396-0.216,0.775-0.39,1.035c-0.3,0.31-0.569,0.734-0.971,0.814
					c-0.667,0.223-1.309,0.384-1.942,0.51c-0.685,0.146-1.438,0.146-2.178-0.069c-3.878-1.081-7.196-2.58-11.092-3.65
					c-0.045,0-0.045-0.263,0-0.31c0.604-0.304,1.252,0.137,1.886-0.033c0.444-0.079-0.088-0.695,0.132-0.695
					c0.807,0.191,1.465,0.726,2.267,1.038c1.609,0.553,3.208,0.711,4.922,1.068c1.338,0.294,2.249,1.238,3.52,1.559
					c1.083,0.328,1.782-0.49,2.615-0.823c0.044,0-0.023-0.342,0.044-0.444c0.375-0.695,1.058-1.058,1.342-1.703
					c0.2-0.473-0.101-1.197,0.2-1.731c0.142-0.25,0.575-0.501,0.677-0.795c0.216-0.832,0.097-1.688,0.097-2.502
					c0.473,0.044,0.834-0.477,0.703-0.695c-0.115-0.129-0.149-0.333-0.229-0.453c0-0.479,0.08-0.997,0.183-1.504
					c0.252-1.217-0.104-2.413-0.6-3.445c-0.252-0.547-0.985-0.696-1.562-0.547c-0.18,0.114-0.249,0.435-0.433,0.547
					c-0.592,0.042-1.088,0.303-1.448,0.603c-0.501,0.394-0.479,1.252-0.91,1.604c-0.738,0.612-1.451,1.264-2.422,1.627
					c-0.612,0.294-1.508-0.057-1.635-0.569c-0.587-1.58,1.559-1.296,2.645-1.58c0.145-0.104,0.394-0.362,0.521-0.567
					c0.305-0.559,0.422-1.364,1.027-1.66c0.391-0.147,0.848-0.147,1.254-0.089c0.386,0.089,0.679-0.459,1.086-0.686
					c0.318-0.147,0.301-0.775,0.421-1.113c0.196-0.651,0.913-0.989,1.207-1.548c0.667-1.205,0.667-3.012,1.637-3.958
					c0.66-0.512,0.316,0.867,0.565,1.16c0.411,0.567,1.562,0.514,1.951,0.092c0.337-0.343-0.038-1.207,0.574-1.547
					c0.278-0.054,0.59-0.054,0.826,0c0.459,0.3,1.001,0.809,1.476,0.521c0.335-0.224,0.686-0.703,1.037-0.817
					c0.564-0.184,1.196,0,1.763-0.25c1.398-0.653,4.325,0.25,4.167-1.105c-0.251-2.184-2.027-3.913-3.95-4.922
					c-1.535-0.732-0.956-2.879-2.33-4.084c-0.351-0.25-0.176-0.809-0.472-1.15c-0.101-0.114-0.296-0.285-0.511-0.387
					c-0.202-0.161-0.43-0.351-0.43-0.423c0.229-1.138-0.316-2.207,0.288-3.15c0.304-0.455,0.989-0.683,1.391-1.014
					c0.483-0.394,1.37-0.704,1.37-1.35c0-0.887-0.088-1.855,0.071-2.777c0.078-0.306,0.624-0.556,0.938-0.556
					c1.608-0.037,3.337,0.393,4.814-0.579c0.379-0.331,0.421-0.81,0.663-1.103c1.146-1.682,2.896-2.991,2.828-5.175
					c-0.038-0.39,0.574-0.488,0.732-0.955C208.326,165.535,208.326,165.147,208.223,165.147z M177.289,201.858
					c0,0.125,0.067,0.331-0.071,0.375c-0.271,0.316-0.836,0.136-0.974-0.286c-0.204-0.432-0.412-0.913-0.828-1.085
					c-0.408-0.079-0.774-0.032-0.983,0.39c-0.419-0.306-0.843-0.079-1.227-0.159c0.134-0.659-0.526-0.614-0.876-1.046
					c-0.408-0.386-0.264-1.161,0.35-1.365c0.47-0.214,0.869,0.171,0.971,0.695c-0.061-0.092-0.102-0.092-0.126-0.196
					c0,0.196-0.093,0.32,0,0.447c0.425,0.397,0.909-0.127,1.375,0.218c0.534,0.314,1.26-0.184,1.874,0.18
					c0.039,0-0.063,0.298,0.146,0.298c0.68,0.112,0.92,0.713,0.761,1.228C177.642,201.678,177.532,201.916,177.289,201.858z"/>
				<g>
					<path fill="#FFFFFF" d="M114.448,320.063c8.736-12.932,35.173-26.805,61.09-26.805c26.052,0,54.201,15.049,65.333,7.089
						c0,0-11.375,9.831-34.331,9.831c-22.985,0-31.731-11.579-47.682-11.579c-15.96,0-32.854,12.92-39.889,23.776L114.448,320.063z"
						/>
					<path fill="#FFFFFF" d="M196.463,291.382c0,0,7.602-4.541,11.544-12.886c4.037-8.401,14.461-21.675,24.96-29.843
						c0,0-11.809,37.258-23.961,38.919c0,0-1.925,1.163,1.499,0.591c3.449-0.591,18.989-6.301,24.529-7.258
						c5.474-0.93,18.968-3.979,22.582-7.587c3.059-3.041,5.113-2.618,5.113-2.618s-14.993,25.026-41.965,25.026
						C220.77,295.727,207.498,294.601,196.463,291.382z"/>
					<path fill="#FFFFFF" d="M228.357,278.496c0,0,2.834-4.349,3.414-11.824c0.59-7.394,5.142-24.458,18.094-43.098
						c0,0,1.883,29.455-12.792,47.508c0,0-0.888,2.635,1.003,0.712c1.908-1.9,11.149-13.048,31.156-26.59
						c0,0,10.388-8.54,10.983-11.365C280.215,233.837,272.065,275.637,228.357,278.496z"/>
					<path fill="#FFFFFF" d="M253.681,250.524c0,0,1.114-4.716,1.114-8.713c0-4.013-1.713-17.677-1.713-23.773
						c0-6.096,0.599-17.452,5.295-25.154c0,0,0,6.78,1.519,9.838c1.529,2.994,3.243,15.144,3.243,16.647
						c0,1.509-0.392,11.796-3.045,17.293c0,0,1.92-1.118,4.013-5.092c2.082-4.045,7.184-11.42,15.01-19.197
						c7.778-7.784,9.469-14.987,9.469-14.987s1.912,13.651-8.16,28.02c-10.072,14.527-14.238,11.988-19.748,17.91
						C260.676,243.317,254.386,250.947,253.681,250.524z"/>
					<path fill="#FFFFFF" d="M269.366,217.694c0,0-0.326-8.371-1.834-11.021c-1.595-2.72-10.633-19.161-8.747-40.237
						c0,0,1.498-1.347,4.355,6.833c2.802,8.181,6.857,10.616,8.151,18.806c1.379,8.115,1.379,11.547,1.379,11.547
						s0.914,1.141,0.914,0.206c0-0.991,0.966-11.959,5.533-21.999c4.534-10.059,10.595-19.569,10.05-26.247
						c0,0,2.661,0.214,2.242,11.037C291.067,177.469,288.199,196.276,269.366,217.694z"/>
					<path fill="#FFFFFF" d="M274.378,184.441c0,0-3.278-7.542-5.553-10.068c-2.274-2.411-18.068-25.423-19.354-35.892
						c0,0,1.286-0.706,2.828,1.911c1.525,2.706,9.123,10.25,10.432,11.411c1.366,1.164,9.334,9.704,10.079,18.792
						c0,0,0.765,0.973-0.744-14.238c-1.506-15.181,4.959-25.02-0.361-35.705c0,0,7.414,1.154,11.361,32.313
						c0,0-0.172,11.009-5.873,24.503C277.195,177.469,275.287,184.441,274.378,184.441z"/>
					<path fill="#FFFFFF" d="M268.643,150.301c0,0-5.909-6.086-10.662-8.927c-4.711-2.891-19.521-17.487-22.182-28.9
						c0,0,0.954-1.262,5.691,4.947c3.615,4.78,7.367,2.447,18.235,16.155c0,0,1.525,3.061,2.289,2.81
						c0.733-0.125-0.392-3.181-0.392-3.181s-2.123-8.523-2.303-11.616c-0.162-3.051-4.518-19.147-6.044-21.251
						c0,0,14.599,8.338,16.728,31.885C269.997,132.221,269.366,149.322,268.643,150.301z"/>
					<path fill="#FFFFFF" d="M256.096,125.194c0,0,0.986-20.533-26.078-30.969c0,0,9.374,19.212,16.406,23.767
						C253.445,122.578,256.096,125.194,256.096,125.194z"/>
				</g>
			</g>
			<g>
				<path fill="#FFFFFF" d="M186.981,320.063c-8.743-12.932-35.188-26.805-61.146-26.805c-25.982,0-54.155,15.049-65.34,7.089
					c0,0,11.395,9.831,34.408,9.831c22.943,0,31.74-11.579,47.677-11.579c15.905,0,32.775,12.92,39.828,23.776L186.981,320.063z"/>
				<path fill="#FFFFFF" d="M104.983,291.382c0,0-7.613-4.541-11.651-12.886c-3.958-8.401-14.413-21.675-24.868-29.843
					c0,0,11.764,37.258,23.968,38.919c0,0,1.89,1.163-1.525,0.591c-3.433-0.591-19.014-6.301-24.522-7.258
					c-5.511-0.93-18.993-3.979-22.621-7.587c-3.025-3.041-5.132-2.618-5.132-2.618s15.008,25.026,42.016,25.026
					C80.644,295.727,93.911,294.601,104.983,291.382z"/>
				<path fill="#FFFFFF" d="M73.022,278.496c0,0-2.819-4.349-3.409-11.824c-0.56-7.394-5.137-24.458-18.035-43.098
					c0,0-1.914,29.455,12.683,47.508c0,0,1.003,2.635-0.91,0.712c-1.885-1.9-11.196-13.048-31.194-26.59
					c0,0-10.423-8.54-10.966-11.365C21.19,233.837,29.363,275.637,73.022,278.496z"/>
				<path fill="#FFFFFF" d="M47.768,250.524c0,0-1.136-4.716-1.136-8.713c0-4.013,1.704-17.677,1.704-23.773
					c0-6.096-0.566-17.452-5.31-25.154c0,0,0,6.78-1.516,9.838c-1.534,2.994-3.241,15.144-3.241,16.647
					c0,1.509,0.362,11.796,3.049,17.293c0,0-1.889-1.118-4.041-5.092c-2.081-4.045-7.203-11.42-14.961-19.197
					c-7.748-7.784-9.497-14.987-9.497-14.987s-1.881,13.651,8.179,28.02c10.056,14.527,14.197,11.988,19.736,17.91
					C40.735,243.317,47.015,250.947,47.768,250.524z"/>
				<path fill="#FFFFFF" d="M31.997,217.694c0,0,0.388-8.371,1.891-11.021c1.512-2.72,10.644-19.161,8.735-40.237
					c0,0-1.513-1.347-4.355,6.833c-2.867,8.181-6.804,10.616-8.193,18.806c-1.328,8.115-1.328,11.547-1.328,11.547
					s-0.914,1.141-0.914,0.206c0-0.991-0.998-11.959-5.516-21.999c-4.54-10.059-10.66-19.569-10.089-26.247
					c0,0-2.673,0.214-2.289,11.037C10.328,177.469,13.18,196.276,31.997,217.694z"/>
				<path fill="#FFFFFF" d="M27.04,184.441c0,0,3.241-7.542,5.539-10.068c2.299-2.411,17.997-25.423,19.375-35.892
					c0,0-1.379-0.706-2.879,1.911c-1.514,2.706-9.099,10.25-10.444,11.411c-1.351,1.164-9.267,9.704-10.102,18.792
					c0,0-0.696,0.973,0.835-14.238c1.463-15.181-4.94-25.02,0.384-35.705c0,0-7.431,1.154-11.444,32.313
					c0,0,0.193,11.009,5.891,24.503C24.192,177.469,26.117,184.441,27.04,184.441z"/>
				<path fill="#FFFFFF" d="M32.761,150.301c0,0,5.868-6.086,10.637-8.927c4.755-2.891,19.531-17.487,22.242-28.9
					c0,0-0.982-1.262-5.724,4.947c-3.608,4.78-7.429,2.447-18.203,16.155c0,0-1.524,3.061-2.288,2.81
					c-0.797-0.125,0.365-3.181,0.365-3.181s2.115-8.523,2.261-11.616c0.183-3.051,4.577-19.147,6.102-21.251
					c0,0-14.665,8.338-16.692,31.885C31.463,132.221,31.997,149.322,32.761,150.301z"/>
				<path fill="#FFFFFF" d="M45.322,125.194c0,0-0.989-20.533,25.983-30.969c0,0-9.295,19.212-16.315,23.767
					C47.972,122.578,45.322,125.194,45.322,125.194z"/>
			</g>
		</g>
	</g>
</g>
<text transform="matrix(1 0 0 1 364.9363 293.2578)" fill="#FFFFFF" font-family="'AvenirNext-Medium'" font-size="244.3449">OCHA</text>
</svg>
